<svg width="31" height="30" viewBox="0 0 31 30" fill="none" xmlns="http://www.w3.org/2000/svg">
<g id="icons8:checked">
<path id="Vector" d="M15.5 2.8125C8.75 2.8125 3.3125 8.25 3.3125 15C3.3125 21.75 8.75 27.1875 15.5 27.1875C22.25 27.1875 27.6875 21.75 27.6875 15C27.6875 13.6875 27.5112 12.3806 27.0425 11.1619L25.52 12.6562C25.7075 13.4062 25.8134 14.1562 25.8134 15C25.8134 20.7188 21.2197 25.3125 15.5009 25.3125C9.78219 25.3125 5.1875 20.7188 5.1875 15C5.1875 9.28125 9.78125 4.6875 15.5 4.6875C18.3125 4.6875 20.8381 5.80687 22.6194 7.58812L23.9375 6.27C21.7812 4.11375 18.7812 2.8125 15.5 2.8125ZM26.075 6.825L15.5 17.4028L11.4875 13.3903L10.1375 14.7375L14.825 19.425L15.5 20.0681L16.175 19.4241L27.425 8.17406L26.075 6.82406V6.825Z" fill="#12273C"/>
</g>
</svg>
