<svg width="50" height="50" viewBox="0 0 50 50" fill="none" xmlns="http://www.w3.org/2000/svg">
<g id="clipboard">
<path id="Vector" d="M33.3335 8.33301H37.5002C38.6052 8.33301 39.665 8.77199 40.4464 9.5534C41.2278 10.3348 41.6668 11.3946 41.6668 12.4997V41.6663C41.6668 42.7714 41.2278 43.8312 40.4464 44.6126C39.665 45.394 38.6052 45.833 37.5002 45.833H12.5002C11.3951 45.833 10.3353 45.394 9.55388 44.6126C8.77248 43.8312 8.3335 42.7714 8.3335 41.6663V12.4997C8.3335 11.3946 8.77248 10.3348 9.55388 9.5534C10.3353 8.77199 11.3951 8.33301 12.5002 8.33301H16.6668" stroke="#2D8EEE" stroke-width="3" stroke-linecap="round" stroke-linejoin="round"/>
<path id="Vector_2" d="M31.2498 4.16699H18.7498C17.5992 4.16699 16.6665 5.09973 16.6665 6.25033V10.417C16.6665 11.5676 17.5992 12.5003 18.7498 12.5003H31.2498C32.4004 12.5003 33.3332 11.5676 33.3332 10.417V6.25033C33.3332 5.09973 32.4004 4.16699 31.2498 4.16699Z" stroke="#2D8EEE" stroke-width="3" stroke-linecap="round" stroke-linejoin="round"/>
</g>
</svg>
