<svg width="28" height="29" viewBox="0 0 28 29" fill="none" xmlns="http://www.w3.org/2000/svg">
<g id="Group">
<path id="Vector" d="M14.0082 2.81065C17.751 2.81065 18.1943 2.82706 19.6662 2.8927C21.0342 2.95286 21.7729 3.1826 22.2654 3.37404C22.9166 3.62565 23.3871 3.93196 23.8741 4.41878C24.3666 4.91106 24.6676 5.37599 24.9193 6.0269C25.1108 6.51919 25.3406 7.26308 25.4008 8.62506C25.4665 10.1019 25.4829 10.545 25.4829 14.2809C25.4829 18.0222 25.4665 18.4653 25.4008 19.9367C25.3406 21.3041 25.1108 22.0425 24.9193 22.5348C24.6676 23.1857 24.3611 23.6561 23.8741 24.1429C23.3817 24.6352 22.9166 24.9361 22.2654 25.1877C21.7729 25.3791 21.0287 25.6089 19.6662 25.669C18.1888 25.7347 17.7456 25.7511 14.0082 25.7511C10.2654 25.7511 9.82216 25.7347 8.35021 25.669C6.98222 25.6089 6.2435 25.3791 5.75103 25.1877C5.09986 24.9361 4.62927 24.6298 4.14227 24.1429C3.64979 23.6507 3.34884 23.1857 3.09713 22.5348C2.90561 22.0425 2.67579 21.2986 2.61559 19.9367C2.54993 18.4598 2.53352 18.0167 2.53352 14.2809C2.53352 10.5395 2.54993 10.0964 2.61559 8.62506C2.67579 7.25761 2.90561 6.51919 3.09713 6.0269C3.34884 5.37599 3.65527 4.90559 4.14227 4.41878C4.63475 3.92649 5.09986 3.62565 5.75103 3.37404C6.2435 3.1826 6.98769 2.95286 8.35021 2.8927C9.82216 2.82706 10.2654 2.81065 14.0082 2.81065ZM14.0082 0.289062C10.2052 0.289062 9.72914 0.305472 8.23529 0.37111C6.74692 0.436748 5.72367 0.67742 4.83721 1.02202C3.91245 1.38303 3.12996 1.8589 2.35294 2.64108C1.57045 3.4178 1.09439 4.19998 0.733242 5.11891C0.388509 6.01049 0.147743 7.02788 0.0820793 8.51567C0.0164159 10.0144 0 10.4903 0 14.2918C0 18.0933 0.0164159 18.5692 0.0820793 20.0625C0.147743 21.5502 0.388509 22.5731 0.733242 23.4592C1.09439 24.3836 1.57045 25.1658 2.35294 25.9425C3.12996 26.7192 3.91245 27.2006 4.83174 27.5561C5.72367 27.9007 6.74145 28.1414 8.22982 28.207C9.72367 28.2727 10.1997 28.2891 14.0027 28.2891C17.8057 28.2891 18.2818 28.2727 19.7756 28.207C21.264 28.1414 22.2873 27.9007 23.1737 27.5561C24.093 27.2006 24.8755 26.7192 25.6525 25.9425C26.4295 25.1658 26.9111 24.3836 27.2668 23.4647C27.6115 22.5731 27.8523 21.5557 27.9179 20.0679C27.9836 18.5747 28 18.0988 28 14.2973C28 10.4957 27.9836 10.0199 27.9179 8.52661C27.8523 7.03882 27.6115 6.01596 27.2668 5.12985C26.922 4.19998 26.446 3.4178 25.6635 2.64108C24.8865 1.86437 24.104 1.38303 23.1847 1.02749C22.2927 0.682889 21.275 0.442217 19.7866 0.37658C18.2873 0.305472 17.8112 0.289062 14.0082 0.289062Z" fill="white"/>
<path id="Vector_2" d="M14.0076 7.09961C10.035 7.09961 6.81201 10.3213 6.81201 14.2924C6.81201 18.2635 10.035 21.4852 14.0076 21.4852C17.9803 21.4852 21.2033 18.2635 21.2033 14.2924C21.2033 10.3213 17.9803 7.09961 14.0076 7.09961ZM14.0076 18.9582C11.4303 18.9582 9.34005 16.8687 9.34005 14.2924C9.34005 11.7161 11.4303 9.62667 14.0076 9.62667C16.5849 9.62667 18.6752 11.7161 18.6752 14.2924C18.6752 16.8687 16.5849 18.9582 14.0076 18.9582Z" fill="white"/>
<path id="Vector_3" d="M23.1669 6.814C23.1669 7.74387 22.4118 8.49324 21.487 8.49324C20.5568 8.49324 19.8071 7.7384 19.8071 6.814C19.8071 5.88413 20.5623 5.13477 21.487 5.13477C22.4118 5.13477 23.1669 5.8896 23.1669 6.814Z" fill="white"/>
</g>
</svg>
