<svg width="28" height="29" viewBox="0 0 28 29" fill="none" xmlns="http://www.w3.org/2000/svg">
<g id="icon" clip-path="url(#clip0_1320_328)">
<path id="Vector" d="M23.8548 24.1497H19.7085V17.6526C19.7085 16.1032 19.677 14.1094 17.5478 14.1094C15.386 14.1094 15.0558 15.7952 15.0558 17.5382V24.1497H10.9095V10.7891H14.8925V12.6102H14.9462C15.5027 11.5602 16.856 10.4519 18.8778 10.4519C23.079 10.4519 23.856 13.2169 23.856 16.8161L23.8548 24.1497ZM6.2265 8.9609C5.91019 8.96105 5.59696 8.89882 5.30472 8.77778C5.01249 8.65673 4.747 8.47924 4.52344 8.25547C4.29989 8.03169 4.12266 7.76603 4.00189 7.47368C3.88113 7.18133 3.81921 6.86804 3.81967 6.55173C3.8199 6.07547 3.96135 5.60998 4.22614 5.21411C4.49092 4.81825 4.86715 4.50979 5.30724 4.32775C5.74733 4.14571 6.23153 4.09825 6.69859 4.19139C7.16565 4.28453 7.5946 4.51408 7.9312 4.85101C8.26781 5.18794 8.49694 5.61711 8.58962 6.08426C8.68231 6.55141 8.63439 7.03556 8.45192 7.47547C8.26945 7.91539 7.96063 8.29132 7.56451 8.55572C7.16839 8.82012 6.70276 8.96113 6.2265 8.9609ZM8.3055 24.1497H4.1475V10.7891H8.3055V24.1497ZM25.9292 0.289062H2.06617C0.924 0.289062 0 1.19206 0 2.30623V26.2719C0 27.3872 0.924 28.2891 2.06617 28.2891H25.9257C27.0667 28.2891 28 27.3872 28 26.2719V2.30623C28 1.19206 27.0667 0.289062 25.9257 0.289062H25.9292Z" fill="#F0F0F0"/>
</g>
<defs>
<clipPath id="clip0_1320_328">
<rect width="28" height="28" fill="white" transform="translate(0 0.289062)"/>
</clipPath>
</defs>
</svg>
