<svg width="40" height="40" viewBox="0 0 40 40" fill="none" xmlns="http://www.w3.org/2000/svg">
<g id="lets-icons:ito">
<path id="Vector" d="M15.0002 9.99967V3.33301M15.0002 36.6663V29.9997M25.0002 36.6663V29.9997M36.6668 24.9997H30.0002M10.0002 24.9997H3.3335M10.0002 14.9997H3.3335M25.0002 4.99967C27.6523 4.99967 30.1959 6.05324 32.0712 7.92861C33.9466 9.80397 35.0002 12.3475 35.0002 14.9997M10.0002 11.6663C10.0002 11.2243 10.1758 10.8004 10.4883 10.4878C10.8009 10.1753 11.2248 9.99967 11.6668 9.99967H25.0002C26.3262 9.99967 27.598 10.5265 28.5357 11.4641C29.4734 12.4018 30.0002 13.6736 30.0002 14.9997V28.333C30.0002 28.775 29.8246 29.199 29.512 29.5115C29.1994 29.8241 28.7755 29.9997 28.3335 29.9997H11.6668C11.2248 29.9997 10.8009 29.8241 10.4883 29.5115C10.1758 29.199 10.0002 28.775 10.0002 28.333V11.6663Z" stroke="#2D8EEE" stroke-width="2"/>
</g>
</svg>
