<svg width="41" height="40" viewBox="0 0 41 40" fill="none" xmlns="http://www.w3.org/2000/svg">
<g id="bi:filetype-java">
<path id="Vector" fill-rule="evenodd" clip-rule="evenodd" d="M35.5002 11.25V27.5H33.0002V11.25H28.0002C27.0057 11.25 26.0518 10.8549 25.3486 10.1517C24.6453 9.44839 24.2502 8.49456 24.2502 7.5V2.5H10.5002C9.83717 2.5 9.20129 2.76339 8.73245 3.23223C8.26361 3.70107 8.00021 4.33696 8.00021 5V27.5H5.50021V5C5.50021 3.67392 6.027 2.40215 6.96468 1.46447C7.90236 0.526784 9.17413 0 10.5002 0L24.2502 0L35.5002 11.25ZM4.30271 37.9375C4.16482 37.5647 4.09538 37.17 4.09771 36.7725H6.01021C6.01477 37.0091 6.07744 37.2409 6.19271 37.4475C6.30782 37.6438 6.47442 37.8048 6.67448 37.9132C6.87454 38.0216 7.10043 38.0732 7.32771 38.0625C7.80271 38.0625 8.15271 37.925 8.38271 37.6525C8.61271 37.3775 8.72771 36.99 8.72771 36.4875V29.625H10.7027V36.4375C10.7027 37.5375 10.4077 38.3725 9.81021 38.95C9.22021 39.525 8.40021 39.8125 7.35021 39.8125C6.86652 39.8212 6.3853 39.7416 5.93021 39.5775C5.54642 39.4316 5.19854 39.2048 4.91021 38.9125C4.64358 38.6321 4.43687 38.3004 4.30271 37.9375ZM14.2327 37.0525L13.4477 39.6225H11.4477L14.8027 29.625H17.1177L20.4577 39.6225H18.3577L17.5727 37.0525H14.2327ZM17.1777 35.5775L15.9527 31.5375H15.8652L14.6402 35.58L17.1777 35.5775ZM23.0327 39.6225H25.4127L28.7302 29.625H26.5352L24.3152 37.47H24.2202L21.9752 29.625H19.6827L23.0327 39.6225ZM30.7502 37.0525L29.9652 39.6225H27.9652L31.3202 29.625H33.6352L36.9752 39.6225H34.8752L34.0902 37.0525H30.7502ZM33.6952 35.5775L32.4702 31.5375H32.3827L31.1577 35.58L33.6952 35.5775Z" fill="#2D8EEE"/>
</g>
</svg>
