<svg width="40" height="40" viewBox="0 0 40 40" fill="none" xmlns="http://www.w3.org/2000/svg">
<path d="M20.0002 3.33301C10.7952 3.33301 3.3335 10.7947 3.3335 19.9997C3.3335 29.2047 10.7952 36.6663 20.0002 36.6663C29.2052 36.6663 36.6668 29.2047 36.6668 19.9997C36.6668 10.7947 29.2052 3.33301 20.0002 3.33301Z" stroke="#2D8EEE" stroke-width="2" stroke-linecap="round" stroke-linejoin="round"/>
<path d="M13.3335 35.2793V23.3327L20.0002 11.666L26.6668 23.3327V35.2793" stroke="#2D8EEE" stroke-width="2" stroke-linecap="round" stroke-linejoin="round"/>
<path d="M13.3335 23.333C13.3335 23.333 15.2118 24.9997 16.6668 24.9997C18.1218 24.9997 20.0002 23.333 20.0002 23.333C20.0002 23.333 21.8785 24.9997 23.3335 24.9997C24.7885 24.9997 26.6668 23.333 26.6668 23.333" stroke="#2D8EEE" stroke-width="2" stroke-linecap="round" stroke-linejoin="round"/>
</svg>
