<svg width="40" height="40" viewBox="0 0 40 40" fill="none" xmlns="http://www.w3.org/2000/svg">
<g id="icons8:checked">
<path id="Vector" d="M20 3.75C11 3.75 3.75 11 3.75 20C3.75 29 11 36.25 20 36.25C29 36.25 36.25 29 36.25 20C36.25 18.25 36.015 16.5075 35.39 14.8825L33.36 16.875C33.61 17.875 33.7512 18.875 33.7512 20C33.7512 27.625 27.6262 33.75 20.0012 33.75C12.3762 33.75 6.25 27.625 6.25 20C6.25 12.375 12.375 6.25 20 6.25C23.75 6.25 27.1175 7.7425 29.4925 10.1175L31.25 8.36C28.375 5.485 24.375 3.75 20 3.75ZM34.1 9.1L20 23.2038L14.65 17.8538L12.85 19.65L19.1 25.9L20 26.7575L20.9 25.8988L35.9 10.8987L34.1 9.09875V9.1Z" fill="#2D8EEE"/>
</g>
</svg>
