<svg width="35" height="34" viewBox="0 0 35 34" fill="none" xmlns="http://www.w3.org/2000/svg">
<g id="Group">
<path id="Vector" d="M17.4998 11.458C26.2443 11.458 33.3332 9.33136 33.3332 6.70801C33.3332 4.08466 26.2443 1.95801 17.4998 1.95801C8.75533 1.95801 1.6665 4.08466 1.6665 6.70801C1.6665 9.33136 8.75533 11.458 17.4998 11.458Z" stroke="#2D8EEE" stroke-width="2" stroke-linecap="round" stroke-linejoin="round"/>
<path id="Vector_2" d="M7.02609 10.2705C3.74067 11.1413 1.6665 12.4143 1.6665 13.833C1.6665 16.4566 8.75509 18.583 17.4998 18.583C26.2446 18.583 33.3332 16.4566 33.3332 13.833C33.3332 12.4143 31.2598 11.1413 27.9736 10.2705" stroke="#2D8EEE" stroke-width="2" stroke-linecap="round" stroke-linejoin="round"/>
<path id="Vector_3" d="M7.02609 17.3955C3.74067 18.2663 1.6665 19.5393 1.6665 20.958C1.6665 23.5816 8.75509 25.708 17.4998 25.708C26.2446 25.708 33.3332 23.5816 33.3332 20.958C33.3332 19.5393 31.2598 18.2663 27.9736 17.3955" stroke="#2D8EEE" stroke-width="2" stroke-linecap="round" stroke-linejoin="round"/>
<path id="Vector_4" d="M7.02609 24.5205C3.74067 25.3913 1.6665 26.6643 1.6665 28.083C1.6665 30.7066 8.75509 32.833 17.4998 32.833C26.2446 32.833 33.3332 30.7066 33.3332 28.083C33.3332 26.6643 31.2598 25.3913 27.9736 24.5205C25.1822 25.2599 21.5152 25.708 17.4998 25.708C13.4845 25.708 9.8183 25.2599 7.02609 24.5205Z" stroke="#2D8EEE" stroke-width="2" stroke-linecap="round" stroke-linejoin="round"/>
</g>
</svg>
