<svg width="40" height="40" viewBox="0 0 40 40" fill="none" xmlns="http://www.w3.org/2000/svg">
<g id="fluent:content-settings-20-regular">
<path id="Vector" d="M11 6C9.67392 6 8.40215 6.52678 7.46447 7.46447C6.52678 8.40215 6 9.67392 6 11V29C6 30.3261 6.52678 31.5979 7.46447 32.5355C8.40215 33.4732 9.67392 34 11 34H19.2C18.8729 33.3608 18.6097 32.6909 18.414 32H11C10.2044 32 9.44129 31.6839 8.87868 31.1213C8.31607 30.5587 8 29.7956 8 29V14H32V18.414C32.698 18.612 33.366 18.874 34 19.2V11C34 9.67392 33.4732 8.40215 32.5355 7.46447C31.5979 6.52678 30.3261 6 29 6H11ZM8 11C8 10.2044 8.31607 9.44129 8.87868 8.87868C9.44129 8.31607 10.2044 8 11 8H29C29.7956 8 30.5587 8.31607 31.1213 8.87868C31.6839 9.44129 32 10.2044 32 11V12H8V11ZM18 17V29C18 29.2652 17.8946 29.5196 17.7071 29.7071C17.5196 29.8946 17.2652 30 17 30H11C10.7348 30 10.4804 29.8946 10.2929 29.7071C10.1054 29.5196 10 29.2652 10 29V17C10 16.7348 10.1054 16.4804 10.2929 16.2929C10.4804 16.1054 10.7348 16 11 16H17C17.2652 16 17.5196 16.1054 17.7071 16.2929C17.8946 16.4804 18 16.7348 18 17ZM12 18V28H16V18H12ZM19.996 17C19.996 16.7348 20.1014 16.4804 20.2889 16.2929C20.4764 16.1054 20.7308 16 20.996 16H29C29.2652 16 29.5196 16.1054 29.7071 16.2929C29.8946 16.4804 30 16.7348 30 17C30 17.2652 29.8946 17.5196 29.7071 17.7071C29.5196 17.8946 29.2652 18 29 18H20.996C20.7308 18 20.4764 17.8946 20.2889 17.7071C20.1014 17.5196 19.996 17.2652 19.996 17ZM24.132 22.884C24.276 23.3973 24.316 23.9341 24.2496 24.4631C24.1832 24.992 24.0117 25.5023 23.7453 25.9641C23.4788 26.4258 23.1228 26.8296 22.698 27.1517C22.2733 27.4739 21.7885 27.7079 21.272 27.84L20.348 28.076C20.2813 28.7521 20.288 29.4334 20.368 30.108L21.068 30.274C21.5983 30.3994 22.0973 30.6318 22.5345 30.957C22.9718 31.2821 23.3379 31.6932 23.6106 32.1649C23.8833 32.6367 24.0567 33.1592 24.1202 33.7003C24.1837 34.2415 24.136 34.7899 23.98 35.312L23.726 36.156C24.242 36.564 24.8 36.912 25.396 37.192L26.046 36.504C26.4202 36.1078 26.8714 35.7922 27.372 35.5766C27.8725 35.3611 28.4119 35.2501 28.9569 35.2504C29.5019 35.2508 30.041 35.3625 30.5413 35.5788C31.0416 35.7951 31.4923 36.1113 31.866 36.508L32.54 37.224C33.124 36.954 33.676 36.62 34.184 36.228L33.872 35.116C33.7277 34.6026 33.6874 34.0655 33.7537 33.5364C33.82 33.0072 33.9914 32.4966 34.2578 32.0347C34.5243 31.5727 34.8805 31.1687 35.3054 30.8464C35.7303 30.5242 36.2153 30.2901 36.732 30.158L37.652 29.924C37.7184 29.2473 37.7117 28.5653 37.632 27.89L36.936 27.726C36.4055 27.6006 35.9063 27.3682 35.4689 27.0429C35.0315 26.7176 34.6652 26.3063 34.3925 25.8343C34.1198 25.3624 33.9464 24.8396 33.8831 24.2982C33.8197 23.7568 33.8677 23.2082 34.024 22.686L34.276 21.844C33.7607 21.4355 33.2004 21.0873 32.606 20.806L31.956 21.494C31.5819 21.8904 31.1308 22.2061 30.6303 22.4218C30.1299 22.6376 29.5906 22.7488 29.0456 22.7486C28.5006 22.7484 27.9614 22.6368 27.461 22.4207C26.9607 22.2047 26.5098 21.8886 26.136 21.492L25.462 20.776C24.8787 21.0451 24.3273 21.3785 23.818 21.77L24.132 22.884ZM29 31C28.4696 31 27.9609 30.7893 27.5858 30.4142C27.2107 30.0391 27 29.5304 27 29C27 28.4696 27.2107 27.9609 27.5858 27.5858C27.9609 27.2107 28.4696 27 29 27C29.5304 27 30.0391 27.2107 30.4142 27.5858C30.7893 27.9609 31 28.4696 31 29C31 29.5304 30.7893 30.0391 30.4142 30.4142C30.0391 30.7893 29.5304 31 29 31Z" fill="#2D8EEE"/>
</g>
</svg>
