<svg width="28" height="29" viewBox="0 0 28 29" fill="none" xmlns="http://www.w3.org/2000/svg">
<g id="icon">
<path id="icon/telegram" fill-rule="evenodd" clip-rule="evenodd" d="M28 14.2891C28 22.021 21.732 28.2891 14 28.2891C6.26801 28.2891 0 22.021 0 14.2891C0 6.55708 6.26801 0.289062 14 0.289062C21.732 0.289062 28 6.55708 28 14.2891ZM14.5017 10.6245C13.14 11.1909 10.4185 12.3631 6.33718 14.1413C5.67445 14.4048 5.32727 14.6627 5.29567 14.9148C5.24226 15.3408 5.77581 15.5086 6.50236 15.7371C6.60119 15.7681 6.70359 15.8003 6.80857 15.8345C7.52338 16.0668 8.48494 16.3387 8.98481 16.3495C9.43824 16.3593 9.94432 16.1723 10.5031 15.7886C14.3163 13.2146 16.2848 11.9135 16.4083 11.8855C16.4955 11.8657 16.6163 11.8408 16.6982 11.9136C16.7801 11.9863 16.772 12.1241 16.7633 12.1611C16.7105 12.3864 14.6161 14.3335 13.5323 15.3412C13.1944 15.6553 12.9547 15.8781 12.9057 15.929C12.796 16.043 12.6841 16.1508 12.5766 16.2545C11.9125 16.8946 11.4145 17.3747 12.6042 18.1587C13.1759 18.5354 13.6333 18.8469 14.0897 19.1577C14.5882 19.4972 15.0853 19.8357 15.7285 20.2574C15.8924 20.3648 16.0489 20.4764 16.2013 20.585C16.7814 20.9986 17.3025 21.3701 17.9463 21.3108C18.3204 21.2764 18.7068 20.9246 18.9031 19.8755C19.3669 17.3961 20.2785 12.0239 20.4892 9.81021C20.5077 9.61626 20.4845 9.36804 20.4658 9.25908C20.4472 9.15012 20.4082 8.99487 20.2666 8.87994C20.0988 8.74384 19.8399 8.71513 19.7241 8.71717C19.1975 8.72645 18.3896 9.00736 14.5017 10.6245Z" fill="white"/>
</g>
</svg>
