<svg width="20" height="21" viewBox="0 0 20 21" fill="none" xmlns="http://www.w3.org/2000/svg">
<path d="M15.8333 17.1666H4.16667C3.24619 17.1666 2.5 16.4204 2.5 15.4999L2.5 5.49992C2.5 4.57944 3.24619 3.83325 4.16667 3.83325L12.5 3.83325C13.4205 3.83325 14.1667 4.57944 14.1667 5.49992V6.33325M15.8333 17.1666C14.9129 17.1666 14.1667 16.4204 14.1667 15.4999L14.1667 6.33325M15.8333 17.1666C16.7538 17.1666 17.5 16.4204 17.5 15.4999V7.99992C17.5 7.07944 16.7538 6.33325 15.8333 6.33325L14.1667 6.33325M10.8333 3.83325L7.5 3.83325M5.83333 13.8333H10.8333M5.83333 7.16659H10.8333V10.4999H5.83333V7.16659Z" stroke="#F0F0F0" stroke-width="1.66667" stroke-linecap="round" stroke-linejoin="round"/>
</svg>
