<svg width="20" height="21" viewBox="0 0 20 21" fill="none" xmlns="http://www.w3.org/2000/svg">
<path d="M17.5 11.5463C15.1839 12.4838 12.6523 13.0001 10 13.0001C7.34775 13.0001 4.81608 12.4838 2.5 11.5463M13.3333 5.50008V3.83341C13.3333 2.91294 12.5871 2.16675 11.6667 2.16675H8.33333C7.41286 2.16675 6.66667 2.91294 6.66667 3.83341V5.50008M10 10.5001H10.0083M4.16667 17.1667H15.8333C16.7538 17.1667 17.5 16.4206 17.5 15.5001V7.16675C17.5 6.24627 16.7538 5.50008 15.8333 5.50008H4.16667C3.24619 5.50008 2.5 6.24627 2.5 7.16675V15.5001C2.5 16.4206 3.24619 17.1667 4.16667 17.1667Z" stroke="#F0F0F0" stroke-width="1.66667" stroke-linecap="round" stroke-linejoin="round"/>
</svg>
