<?xml version="1.0" encoding="UTF-8"?>
<svg id="_Колір" data-name="Колір" xmlns="http://www.w3.org/2000/svg" xmlns:xlink="http://www.w3.org/1999/xlink" viewBox="0 0 567 567">
  <defs>
    <style>
      .cls-1 {
        fill: url(#_Градієнт_без_назви_36-2);
      }

      .cls-1, .cls-2, .cls-3, .cls-4, .cls-5, .cls-6, .cls-7, .cls-8 {
        stroke-width: 0px;
      }

      .cls-2 {
        fill: url(#_Градієнт_без_назви_26-3);
      }

      .cls-3 {
        fill: url(#_Градієнт_без_назви_38);
      }

      .cls-4 {
        fill: url(#_Градієнт_без_назви_26);
      }

      .cls-5 {
        fill: url(#_Градієнт_без_назви_26-2);
      }

      .cls-6 {
        fill: #fff;
      }

      .cls-7 {
        fill: url(#_Градієнт_без_назви_36-3);
      }

      .cls-8 {
        fill: url(#_Градієнт_без_назви_36);
      }
    </style>
    <linearGradient id="_Градієнт_без_назви_26" data-name="Градієнт без назви 26" x1="397.88" y1="341.89" x2="471.3" y2="256.63" gradientUnits="userSpaceOnUse">
      <stop offset=".06" stop-color="#52518b"/>
      <stop offset=".51" stop-color="#3f96a8"/>
    </linearGradient>
    <linearGradient id="_Градієнт_без_назви_26-2" data-name="Градієнт без назви 26" x1="386.85" y1="344.41" x2="452.09" y2="268.64" xlink:href="#_Градієнт_без_назви_26"/>
    <linearGradient id="_Градієнт_без_назви_26-3" data-name="Градієнт без назви 26" x1="369.6" y1="341.84" x2="416.9" y2="286.91" xlink:href="#_Градієнт_без_назви_26"/>
    <linearGradient id="_Градієнт_без_назви_38" data-name="Градієнт без назви 38" x1="507.75" y1="330.92" x2="530.08" y2="304.98" gradientUnits="userSpaceOnUse">
      <stop offset="0" stop-color="#52518b"/>
      <stop offset="0" stop-color="#3f96a8"/>
    </linearGradient>
    <linearGradient id="_Градієнт_без_назви_36" data-name="Градієнт без назви 36" x1="54.73" y1="309.52" x2="103.75" y2="252.84" gradientUnits="userSpaceOnUse">
      <stop offset="0" stop-color="#52528b"/>
      <stop offset="1" stop-color="#2fb2af"/>
    </linearGradient>
    <linearGradient id="_Градієнт_без_назви_36-2" data-name="Градієнт без назви 36" x1="20.96" y1="280.32" x2="69.99" y2="223.64" xlink:href="#_Градієнт_без_назви_36"/>
    <linearGradient id="_Градієнт_без_назви_36-3" data-name="Градієнт без назви 36" x1="67.24" y1="320.34" x2="116.26" y2="263.66" xlink:href="#_Градієнт_без_назви_36"/>
  </defs>
  <g>
    <path class="cls-4" d="M501.1,308.08c-.05-.12-.08-.21-.12-.3-.6-1.23.04-2.79,1.47-3.2.78-.22,1.49-.06,2.11.45.34.28.6.63.73,1.06.33,1.06-.13,2.19-1.04,2.7-.52.29-1.05.33-1.2.34-.28.01-.51-.03-.67-.06-.07.06-.14.11-.2.17-1.42,1.43-2.83,2.86-4.24,4.3-.68.69-1.35,1.39-2.03,2.08-1.06,1.08-2.12,2.16-3.18,3.24-.91.93-1.83,1.86-2.74,2.8-.17.18-.34.36-.52.54-.11.12-.23.24-.34.35h-58.89c-.08-.07-.17-.15-.25-.23-2.64-2.63-3.65-3.85-6.04-6.01-.22-.2-.58-.52-1.05-.92-10.22.01-20.44.02-30.66,0-16.06,0-32.13-.04-48.19-.1,0-.51,0-1.03,0-1.54,26.52,0,53.04,0,79.56,0,2.36,2.31,4.71,4.64,7.06,6.98.08.08.33.33.41.41h57.29c1.97-2.06,3.54-3.67,4.63-4.79.39-.4.6-.62,2.61-2.66.92-.94,1.84-1.88,2.76-2.82.82-.84,1.65-1.68,2.47-2.52.08-.08.16-.17.26-.28Z"/>
    <path class="cls-5" d="M344.07,307.57c0-.52,0-1.05,0-1.57,27.47,0,54.94-.02,82.42-.03.1.09.2.19.3.29,2.26,2.25,4.52,4.5,6.78,6.75,0,0,.04.04.09.09l.16.14c17.05.03,34.1.05,51.14.08,1.81-1.9,3.63-3.81,5.44-5.71-.34-.65-.44-1.34-.17-2.04.18-.46.49-.83.9-1.09.91-.59,1.97-.49,2.76.17.83.7,1.03,1.82.61,2.72-.24.52-.63.9-1.16,1.14-.53.25-1.08.22-1.66.12-1.98,2.08-3.96,4.15-5.94,6.23-.15,0-.3.01-.45.01-8.32,0-14.56.04-16.07,0-4.1-.11-13.33-.19-36.02-.03-2.45-2.41-4.91-4.83-7.36-7.24-27.26-.01-54.52-.03-81.78-.04Z"/>
    <path class="cls-2" d="M344.06,299.73c0-.49,0-.99,0-1.48,28.47.01,56.94.02,85.42.03,2.58,2.55,5.15,5.09,7.73,7.64,6.61.01,13.23.03,19.84.04.09-.24.36-.84,1-1.27,1.1-.72,2.3-.27,2.4-.23.07.03,1.38.57,1.62,1.89.26,1.48-1.03,2.82-2.12,2.99-.81.13-1.5-.1-2.12-.61,0,0-.02-.01-.02-.02-.32-.3-.61-.62-.66-1.1-6.86-.03-13.72-.06-20.57-.09-2.6-2.56-5.19-5.12-7.79-7.68-28.23-.04-56.47-.08-84.7-.11ZM461.1,306.83c.05-1.05-.89-1.6-1.58-1.59-.95,0-1.58.86-1.6,1.54-.01.83.75,1.59,1.56,1.6.93.02,1.63-.7,1.62-1.55Z"/>
    <path class="cls-3" d="M498.18,322.68c0-.53,0-1.05,0-1.58.08,0,12.66.04,14.84.05,1.34-1.28,2.41-2.3,3.12-2.99,1.44-1.38,2.11-2.02,3.12-2.97.82-.77,1.5-1.39,1.94-1.78,3.01-.04,6.03-.07,9.08-.08,1.35,0,2.69,0,4.03,0,.09-.27.3-.82.84-1.25.74-.59,1.74-.67,2.54-.36.22.08.73.32,1.13.86.65.88.74,2.2.06,3.12-.27.37-.66.68-1.16.88-1.06.42-2.41,0-3-.89-.17-.26-.25-.51-.29-.7-3.16,0-6.32-.01-9.49,0-1.07,0-2.13,0-3.2,0,0,0-2.82,2.74-5.75,5.52-.97.92-1.77,1.67-2.31,2.18h-15.47ZM536.8,315.73c.9,0,1.57-.67,1.58-1.55.01-1-.85-1.57-1.57-1.58-.94-.01-1.61.85-1.61,1.56,0,.93.8,1.61,1.6,1.58Z"/>
  </g>
  <g>
    <path class="cls-6" d="M175.24,236.3l-3.04,7.5h-31.55v-7.5h34.59ZM140.65,284.81v-28.51h30.67l-2.9,7.16h-18.64v21.35h-9.12Z"/>
    <path class="cls-6" d="M223.73,236.3v29.52c0,18.91.13,19.12-20.47,19.12s-20.27-.2-20.27-19.12v-29.52h9.32v29.72q0,10.27,10.94,10.27,11.15,0,11.15-10.27v-29.72h9.32Z"/>
    <path class="cls-6" d="M271.01,277.31v7.63h-36.68v-48.64h9.12v41h27.56Z"/>
    <path class="cls-6" d="M314.65,277.31v7.63h-36.68v-48.64h9.12v41h27.56Z"/>
    <path class="cls-6" d="M358.69,270.42c0,13.92,0,14.05-21.28,14.39h-15.87v-6.96h15.74c12.5-.14,12.83-.14,12.83-6.89q0-7.63-9.12-7.63c-19.45,0-19.25,0-19.25-12.36,0-14.59,0-14.46,22.76-14.46,3.92,0,8.65-.14,14.05-.14l-2.36,7.09h-11.69c-13.98,0-13.98.2-13.98,6.96-.2,5.4-.2,5.61,10.47,5.61,17.7,0,17.7.14,17.7,14.39Z"/>
    <path class="cls-6" d="M409.69,236.44l-3.04,7.63h-15.2v40.87h-9.32v-40.87h-15.2l-3.04-7.63h45.8Z"/>
    <path class="cls-6" d="M426.24,236.17h.2l22.97,48.5h-9.32l-13.65-28.03h-.2l-13.64,28.03h-9.32l22.97-48.5Z"/>
    <path class="cls-6" d="M489.93,277.04v7.84h-13.51q-22.76,0-22.76-24.25v-.13q.13-24.18,22.76-24.18h15.4l-3.04,7.77h-12.36c-13.98,0-13.98.14-13.98,16.55s0,16.42,13.98,16.42h13.51Z"/>
    <path class="cls-6" d="M508.78,236.44v22.83l18.91-22.83h10.33l-16.89,19.93,18.71,28.57h-10.47l-14.19-21.62-6.42,7.09v14.52h-8.78v-48.5h8.78Z"/>
  </g>
  <g>
    <path class="cls-6" d="M140.65,298.56h1.13v17.28h-1.13v-17.28Z"/>
    <path class="cls-6" d="M151.05,298.56l7.76,10.87,3.25,4.67h.08c-.12-1.09-.18-2.87-.18-5.35v-10.19h1.13v17.28h-.98l-7.79-10.99-3.22-4.58h-.05c.1,1.09.15,3.11.15,6.06v9.5h-1.13v-17.28h.98Z"/>
    <path class="cls-6" d="M172.36,298.56l7.76,10.87,3.25,4.67h.08c-.12-1.09-.18-2.87-.18-5.35v-10.19h1.13v17.28h-.98l-7.79-10.99-3.22-4.58h-.05c.1,1.09.15,3.11.15,6.06v9.5h-1.13v-17.28h.98Z"/>
    <path class="cls-6" d="M192.16,307.21c0-1.71.33-3.26,1-4.63s1.59-2.44,2.78-3.21c1.19-.77,2.53-1.16,4.04-1.16s2.95.39,4.13,1.16c1.18.77,2.09,1.84,2.73,3.2.64,1.36.96,2.91.96,4.64s-.33,3.24-.99,4.6c-.66,1.36-1.58,2.43-2.77,3.2-1.18.77-2.52,1.16-4,1.16-1.59,0-2.98-.38-4.17-1.15-1.19-.77-2.11-1.83-2.75-3.19-.64-1.36-.96-2.9-.96-4.62ZM206.58,307.21c0-1.65-.29-3.08-.88-4.29s-1.38-2.12-2.38-2.74-2.12-.94-3.35-.94-2.32.31-3.33.94c-1.01.62-1.8,1.54-2.39,2.74s-.88,2.63-.88,4.29.3,3.1.89,4.3,1.39,2.1,2.4,2.71c1.01.61,2.13.92,3.37.92s2.31-.31,3.3-.92c.99-.61,1.77-1.51,2.36-2.71s.88-2.63.88-4.3Z"/>
    <path class="cls-6" d="M214.91,298.56l3.34,9.23c1.17,3.23,1.97,5.53,2.4,6.89h.05c.42-1.39,1.06-3.27,1.92-5.65l3.75-10.47h1.16l-6.25,17.28h-1.26l-6.27-17.28h1.16Z"/>
    <path class="cls-6" d="M231.08,315.84l7.05-17.28h1.11l7.08,17.28h-1.25l-2.48-6.14h-7.81l-2.46,6.14h-1.24ZM242.17,308.67l-.66-1.67c-1.44-3.58-2.36-5.94-2.77-7.1h-.05c-.35.98-.93,2.44-1.74,4.38-.25.59-.84,2.06-1.78,4.38h7Z"/>
    <path class="cls-6" d="M255.68,299.62h-5.94v-1.06h13.05v1.06h-5.97v16.22h-1.13v-16.22Z"/>
    <path class="cls-6" d="M269.41,298.56h1.13v17.28h-1.13v-17.28Z"/>
    <path class="cls-6" d="M278.3,307.21c0-1.71.33-3.26,1-4.63s1.59-2.44,2.78-3.21c1.19-.77,2.53-1.16,4.04-1.16s2.95.39,4.13,1.16,2.09,1.84,2.73,3.2.96,2.91.96,4.64-.33,3.24-.99,4.6c-.66,1.36-1.58,2.43-2.77,3.2-1.18.77-2.52,1.16-4,1.16-1.59,0-2.98-.38-4.17-1.15-1.19-.77-2.11-1.83-2.75-3.19-.64-1.36-.96-2.9-.96-4.62ZM292.72,307.21c0-1.65-.29-3.08-.88-4.29s-1.38-2.12-2.38-2.74-2.12-.94-3.35-.94-2.32.31-3.33.94-1.8,1.54-2.39,2.74c-.59,1.2-.88,2.63-.88,4.29s.3,3.1.89,4.3c.59,1.19,1.39,2.1,2.41,2.71,1.01.61,2.13.92,3.37.92s2.31-.31,3.3-.92c.99-.61,1.78-1.51,2.36-2.71s.88-2.63.88-4.3Z"/>
    <path class="cls-6" d="M302.68,298.56l7.76,10.87,3.25,4.67h.08c-.12-1.09-.18-2.87-.18-5.35v-10.19h1.13v17.28h-.98l-7.79-10.99-3.22-4.58h-.05c.1,1.09.15,3.11.15,6.06v9.5h-1.13v-17.28h.98Z"/>
    <path class="cls-6" d="M322.49,315.23v-1.24c.42.26,1.11.51,2.06.75.96.24,1.75.36,2.37.36,1.55,0,2.75-.29,3.6-.87s1.28-1.56,1.28-2.95c0-.7-.14-1.28-.43-1.73s-.68-.82-1.18-1.1c-.5-.28-1.39-.59-2.68-.94-1.12-.29-2.02-.57-2.69-.85-.68-.28-1.25-.72-1.71-1.31-.46-.59-.7-1.39-.7-2.39,0-1.44.52-2.59,1.55-3.46,1.04-.87,2.39-1.31,4.07-1.31,1.1,0,2.17.16,3.22.48.42.16.8.31,1.13.48v1.24c-.52-.24-.97-.44-1.35-.59-.37-.15-.83-.28-1.35-.39-.53-.11-1.11-.17-1.73-.18-1.49,0-2.59.34-3.31,1.03s-1.08,1.61-1.08,2.75c0,.72.16,1.29.47,1.71.31.41.74.73,1.27.96.53.22,1.33.48,2.39.78,1.19.33,2.12.63,2.79.91.67.28,1.25.73,1.75,1.34s.74,1.45.74,2.51c0,1.55-.53,2.76-1.59,3.63-1.06.87-2.57,1.3-4.53,1.3-.81,0-1.65-.11-2.53-.32s-1.49-.42-1.83-.61Z"/>
  </g>
  <g>
    <path class="cls-8" d="M70.21,327.96c-1.61-1.78-3.22-3.55-4.82-5.33-2.95-3.27-5.89-6.54-8.83-9.82-1.72-1.91-3.47-3.79-5.13-5.75-2.84-3.35-4.7-7.19-5.4-11.55-.81-5.07-.26-9.97,1.9-14.66,1-2.17,2.39-4.09,3.99-5.86,4.64-5.16,9.26-10.34,13.9-15.5,4.49-5,9-10,13.5-14.99,3.96-4.39,7.91-8.78,11.87-13.17.09-.1.18-.19.29-.32,3.92,4.35,7.82,8.68,11.75,13.04-.07.09-.14.18-.21.26-3.56,3.95-7.11,7.91-10.67,11.86-5.94,6.6-11.89,13.21-17.83,19.81-3.05,3.38-6.1,6.77-9.16,10.14-.94,1.03-1.69,2.17-2.01,3.55-.52,2.28,0,4.34,1.48,6.11,1.36,1.62,2.82,3.16,4.24,4.74.38.42.76.84,1.16,1.28,6.13-6.8,12.24-13.58,18.37-20.38,3.93,4.36,7.84,8.7,11.77,13.06-.4.45-.8.89-1.19,1.33-5.42,6.01-10.83,12.02-16.25,18.03-4.2,4.66-8.4,9.33-12.6,13.99-.03.03-.05.07-.07.1h-.06Z"/>
    <path class="cls-1" d="M31.93,285.33c-1.05-.91-1.8-2-2.53-3.11-1.95-2.95-3.26-6.18-3.92-9.66-.42-2.2-.55-4.42-.39-6.66.43-6.09,2.72-11.38,6.79-15.91,4.81-5.35,9.6-10.72,14.4-16.08,5.42-6.06,10.85-12.12,16.27-18.18,2.48-2.77,4.94-5.57,7.4-8.35.03-.04.07-.07.12-.13,3.96,4.39,7.92,8.78,11.9,13.2-.85.96-1.67,1.91-2.52,2.85-3.86,4.29-7.72,8.57-11.58,12.85-3.23,3.59-6.47,7.17-9.7,10.76-3.74,4.15-7.48,8.3-11.2,12.46-2.15,2.41-4.29,4.83-6.4,7.27-2.43,2.82-4.44,5.9-5.89,9.34-1.07,2.55-1.86,5.18-2.37,7.89-.09.48-.25.94-.38,1.44Z"/>
    <path class="cls-7" d="M112.68,254.53c3.97,4.41,7.91,8.8,11.88,13.21-3.87,4.29-7.72,8.57-11.59,12.87-3.96-4.38-7.89-8.74-11.85-13.12,3.85-4.32,7.69-8.63,11.56-12.96Z"/>
  </g>
</svg>